<svg width="20" height="21" viewBox="0 0 20 21" fill="none" xmlns="http://www.w3.org/2000/svg">
<path fill-rule="evenodd" clip-rule="evenodd" d="M12.049 4.34615C12.049 5.47773 11.1316 6.39505 10.0001 6.39505C8.86847 6.39505 7.95115 5.47773 7.95115 4.34615C7.95115 3.21457 8.86847 2.29724 10.0001 2.29724C11.1316 2.29724 12.049 3.21457 12.049 4.34615ZM13.0995 6.07613C12.4924 7.16138 11.3319 7.89505 10.0001 7.89505C8.66811 7.89505 7.50755 7.1613 6.90053 6.07595C4.74254 7.19756 3.26995 9.45331 3.26995 12.0515C3.26995 12.1831 3.27372 12.3139 3.28116 12.4435C3.36954 12.437 3.45882 12.4336 3.54888 12.4336C5.50889 12.4336 7.09779 14.0225 7.09779 15.9825C7.09779 16.6651 6.90508 17.3027 6.5711 17.8438C7.575 18.4395 8.74674 18.7814 9.99983 18.7814C11.252 18.7814 12.423 18.44 13.4264 17.8451C13.0919 17.3037 12.8989 16.6656 12.8989 15.9825C12.8989 14.0225 14.4878 12.4336 16.4478 12.4336C16.5389 12.4336 16.6291 12.437 16.7185 12.4438C16.7259 12.314 16.7297 12.1832 16.7297 12.0515C16.7297 9.45345 15.2573 7.1978 13.0995 6.07613ZM5.50316 18.9453C6.79591 19.7901 8.34138 20.2814 9.99983 20.2814C11.6576 20.2814 13.2026 19.7905 14.495 18.9463C15.0552 19.3161 15.7263 19.5314 16.4478 19.5314C18.4078 19.5314 19.9967 17.9425 19.9967 15.9825C19.9967 14.6546 19.2675 13.4971 18.1876 12.8886C18.2155 12.6131 18.2297 12.3339 18.2297 12.0515C18.2297 8.77203 16.3118 5.94214 13.5386 4.61936C13.5455 4.52919 13.549 4.43808 13.549 4.34615C13.549 2.38614 11.9601 0.797241 10.0001 0.797241C8.04005 0.797241 6.45115 2.38614 6.45115 4.34615C6.45115 4.43801 6.45464 4.52905 6.46149 4.61915C3.68803 5.94185 1.76995 8.77185 1.76995 12.0515C1.76995 12.3333 1.78415 12.6121 1.8119 12.887C0.730498 13.4951 -2.28882e-05 14.6535 -2.28882e-05 15.9825C-2.28882e-05 17.9425 1.58887 19.5314 3.54888 19.5314C4.27098 19.5314 4.9427 19.3157 5.50316 18.9453ZM16.4478 18.0314C17.5794 18.0314 18.4967 17.1141 18.4967 15.9825C18.4967 14.8509 17.5794 13.9336 16.4478 13.9336C15.3162 13.9336 14.3989 14.8509 14.3989 15.9825C14.3989 17.1141 15.3162 18.0314 16.4478 18.0314ZM5.59779 15.9825C5.59779 17.1141 4.68046 18.0314 3.54888 18.0314C2.4173 18.0314 1.49998 17.1141 1.49998 15.9825C1.49998 14.8509 2.4173 13.9336 3.54888 13.9336C4.68046 13.9336 5.59779 14.8509 5.59779 15.9825Z" fill="#A49EB5"/>
</svg>
