<svg width="20" height="21" viewBox="0 0 20 21" fill="none" xmlns="http://www.w3.org/2000/svg">
<path d="M16.9167 13.2216V18.5116C16.9167 19.202 16.357 19.7616 15.6667 19.7616H12.4167V15.6136C12.4167 14.6471 11.6332 13.8636 10.6667 13.8636H9.33333C8.36683 13.8636 7.58333 14.6471 7.58333 15.6136V19.7616H4.33333C3.64298 19.7616 3.08333 19.202 3.08333 18.5116V13.2216C3.08333 12.7759 2.72206 12.4147 2.27642 12.4147H2.25219C1.42255 12.4147 0.75 11.7421 0.75 10.9125C0.75 10.5267 0.898378 10.1558 1.1644 9.87648L9.10259 1.54138C9.59338 1.02605 10.4147 1.02385 10.9083 1.53653L18.8091 9.74365C19.092 10.0375 19.25 10.4296 19.25 10.8375V10.8882C19.25 11.7313 18.5666 12.4147 17.7236 12.4147C17.2779 12.4147 16.9167 12.7759 16.9167 13.2216Z" stroke="#0D0140" stroke-width="1.5"/>
</svg>
