<svg width="103" height="93" viewBox="0 0 103 93" fill="none" xmlns="http://www.w3.org/2000/svg">
<path d="M6.526 87.312C4.758 87.312 3.33666 86.818 2.26199 85.83C1.20466 84.8247 0.675995 83.4033 0.675995 81.566H4.004C4.02133 82.4153 4.22066 83.0913 4.60199 83.594C4.98333 84.0967 5.59866 84.348 6.448 84.348C7.24533 84.348 7.826 84.114 8.19 83.646C8.554 83.1607 8.736 82.528 8.736 81.748V68.8H12.064V81.748C12.064 83.5333 11.5613 84.9113 10.556 85.882C9.56799 86.8353 8.22466 87.312 6.526 87.312Z" fill="white"/>
<path d="M21.7159 87.312C20.4679 87.312 19.3412 87.026 18.3359 86.454C17.3479 85.882 16.5592 85.0933 15.9699 84.088C15.3979 83.0653 15.1119 81.8867 15.1119 80.552C15.1119 79.2173 15.4066 78.0473 15.9959 77.042C16.5852 76.0193 17.3739 75.222 18.3619 74.65C19.3672 74.078 20.4939 73.792 21.7419 73.792C22.9726 73.792 24.0819 74.078 25.0699 74.65C26.0752 75.222 26.8639 76.0193 27.4359 77.042C28.0252 78.0473 28.3199 79.2173 28.3199 80.552C28.3199 81.8867 28.0252 83.0653 27.4359 84.088C26.8639 85.0933 26.0752 85.882 25.0699 86.454C24.0646 87.026 22.9466 87.312 21.7159 87.312ZM21.7159 84.426C22.5826 84.426 23.3366 84.1053 23.9779 83.464C24.6192 82.8053 24.9399 81.8347 24.9399 80.552C24.9399 79.2693 24.6192 78.3073 23.9779 77.666C23.3366 77.0073 22.5912 76.678 21.7419 76.678C20.8579 76.678 20.0952 77.0073 19.4539 77.666C18.8299 78.3073 18.5179 79.2693 18.5179 80.552C18.5179 81.8347 18.8299 82.8053 19.4539 83.464C20.0952 84.1053 20.8492 84.426 21.7159 84.426Z" fill="white"/>
<path d="M38.9395 87.312C37.9688 87.312 37.1195 87.13 36.3915 86.766C35.6635 86.402 35.0741 85.8907 34.6235 85.232L34.2595 87H31.2955V68.28H34.6235V75.95C35.0395 75.378 35.5855 74.8753 36.2615 74.442C36.9548 74.0087 37.8475 73.792 38.9395 73.792C40.1528 73.792 41.2361 74.0867 42.1895 74.676C43.1428 75.2653 43.8968 76.0713 44.4515 77.094C45.0061 78.1167 45.2835 79.278 45.2835 80.578C45.2835 81.878 45.0061 83.0393 44.4515 84.062C43.8968 85.0673 43.1428 85.8647 42.1895 86.454C41.2361 87.026 40.1528 87.312 38.9395 87.312ZM38.2375 84.4C39.2948 84.4 40.1701 84.0447 40.8635 83.334C41.5568 82.6233 41.9035 81.7047 41.9035 80.578C41.9035 79.4513 41.5568 78.524 40.8635 77.796C40.1701 77.068 39.2948 76.704 38.2375 76.704C37.1628 76.704 36.2788 77.068 35.5855 77.796C34.9095 78.5067 34.5715 79.4253 34.5715 80.552C34.5715 81.6787 34.9095 82.606 35.5855 83.334C36.2788 84.0447 37.1628 84.4 38.2375 84.4Z" fill="white"/>
<path d="M53.5864 87.312C52.4424 87.312 51.4371 87.13 50.5704 86.766C49.7037 86.3847 49.0104 85.8647 48.4904 85.206C47.9704 84.5473 47.6584 83.7847 47.5544 82.918H50.9084C51.0124 83.4207 51.2897 83.854 51.7404 84.218C52.2084 84.5647 52.8064 84.738 53.5344 84.738C54.2624 84.738 54.7911 84.5907 55.1204 84.296C55.4671 84.0013 55.6404 83.6633 55.6404 83.282C55.6404 82.7273 55.3977 82.3547 54.9124 82.164C54.4271 81.956 53.7511 81.7567 52.8844 81.566C52.3297 81.4447 51.7664 81.2973 51.1944 81.124C50.6224 80.9507 50.0937 80.734 49.6084 80.474C49.1404 80.1967 48.7591 79.85 48.4644 79.434C48.1697 79.0007 48.0224 78.472 48.0224 77.848C48.0224 76.704 48.4731 75.742 49.3744 74.962C50.2931 74.182 51.5757 73.792 53.2224 73.792C54.7477 73.792 55.9611 74.1473 56.8624 74.858C57.7811 75.5687 58.3271 76.548 58.5004 77.796H55.3544C55.1637 76.8427 54.4444 76.366 53.1964 76.366C52.5724 76.366 52.0871 76.4873 51.7404 76.73C51.4111 76.9727 51.2464 77.276 51.2464 77.64C51.2464 78.0213 51.4977 78.3247 52.0004 78.55C52.5031 78.7753 53.1704 78.9833 54.0024 79.174C54.9037 79.382 55.7271 79.616 56.4724 79.876C57.2351 80.1187 57.8417 80.4913 58.2924 80.994C58.7431 81.4793 58.9684 82.1813 58.9684 83.1C58.9857 83.8973 58.7777 84.6167 58.3444 85.258C57.9111 85.8993 57.2871 86.402 56.4724 86.766C55.6577 87.13 54.6957 87.312 53.5864 87.312Z" fill="white"/>
<path d="M61.9166 92.72V74.104H64.8806L65.2446 75.95C65.6606 75.378 66.2066 74.8753 66.8826 74.442C67.5759 74.0087 68.4686 73.792 69.5606 73.792C70.7739 73.792 71.8572 74.0867 72.8106 74.676C73.7639 75.2653 74.5179 76.0713 75.0726 77.094C75.6272 78.1167 75.9046 79.278 75.9046 80.578C75.9046 81.878 75.6272 83.0393 75.0726 84.062C74.5179 85.0673 73.7639 85.8647 72.8106 86.454C71.8572 87.026 70.7739 87.312 69.5606 87.312C68.5899 87.312 67.7406 87.13 67.0126 86.766C66.2846 86.402 65.6952 85.8907 65.2446 85.232V92.72H61.9166ZM68.8586 84.4C69.9159 84.4 70.7912 84.0447 71.4846 83.334C72.1779 82.6233 72.5246 81.7047 72.5246 80.578C72.5246 79.4513 72.1779 78.524 71.4846 77.796C70.7912 77.068 69.9159 76.704 68.8586 76.704C67.7839 76.704 66.8999 77.068 66.2066 77.796C65.5306 78.5067 65.1926 79.4253 65.1926 80.552C65.1926 81.6787 65.5306 82.606 66.2066 83.334C66.8999 84.0447 67.7839 84.4 68.8586 84.4Z" fill="white"/>
<path d="M85.0655 87.312C83.8175 87.312 82.6908 87.026 81.6855 86.454C80.6975 85.882 79.9088 85.0933 79.3195 84.088C78.7475 83.0653 78.4615 81.8867 78.4615 80.552C78.4615 79.2173 78.7562 78.0473 79.3455 77.042C79.9348 76.0193 80.7235 75.222 81.7115 74.65C82.7168 74.078 83.8435 73.792 85.0915 73.792C86.3222 73.792 87.4315 74.078 88.4195 74.65C89.4248 75.222 90.2135 76.0193 90.7855 77.042C91.3748 78.0473 91.6695 79.2173 91.6695 80.552C91.6695 81.8867 91.3748 83.0653 90.7855 84.088C90.2135 85.0933 89.4248 85.882 88.4195 86.454C87.4142 87.026 86.2962 87.312 85.0655 87.312ZM85.0655 84.426C85.9322 84.426 86.6862 84.1053 87.3275 83.464C87.9688 82.8053 88.2895 81.8347 88.2895 80.552C88.2895 79.2693 87.9688 78.3073 87.3275 77.666C86.6862 77.0073 85.9408 76.678 85.0915 76.678C84.2075 76.678 83.4448 77.0073 82.8035 77.666C82.1795 78.3073 81.8675 79.2693 81.8675 80.552C81.8675 81.8347 82.1795 82.8053 82.8035 83.464C83.4448 84.1053 84.1988 84.426 85.0655 84.426Z" fill="white"/>
<path d="M99.8833 87C98.5313 87 97.4479 86.6707 96.6333 86.012C95.8186 85.3533 95.4113 84.1833 95.4113 82.502V76.886H93.2013V74.104H95.4113L95.8013 70.646H98.7393V74.104H102.223V76.886H98.7393V82.528C98.7393 83.152 98.8693 83.5853 99.1293 83.828C99.4066 84.0533 99.8746 84.166 100.533 84.166H102.145V87H99.8833Z" fill="white"/>
<path d="M22 30C22 15.8579 22 8.78679 26.3934 4.39339C30.7868 0 37.8578 0 52 0C66.1421 0 73.2131 0 77.6066 4.39339C82 8.78679 82 15.8579 82 30C82 44.1421 82 51.2131 77.6066 55.6066C73.2131 60 66.1421 60 52 60C37.8578 60 30.7868 60 26.3934 55.6066C22 51.2131 22 44.1421 22 30Z" fill="white"/>
<path d="M56.9999 37.5C57.6903 37.5 58.2625 38.0651 58.1254 38.7418C57.883 39.9368 57.2943 41.0444 56.4193 41.9194C55.2473 43.0915 53.6575 43.75 51.9999 43.75C50.3423 43.75 48.7527 43.0915 47.5805 41.9194C46.7055 41.0444 46.1168 39.9368 45.8745 38.7418C45.7373 38.0651 46.3095 37.5 46.9999 37.5H56.9999Z" fill="#0D0140"/>
<path d="M59.6278 27.2206C58.9609 27.3992 58.5526 28.0969 58.8907 28.6987C59.2466 29.3322 59.7388 29.8851 60.3377 30.3142C61.2779 30.988 62.4227 31.315 63.5771 31.2392C64.7313 31.1636 65.8237 30.6901 66.6679 29.8994C67.5123 29.1086 68.0562 28.0495 68.2072 26.9026C68.3582 25.7557 68.1069 24.592 67.4961 23.6096C66.8852 22.6274 65.9526 21.8872 64.8572 21.5154C63.7618 21.1435 62.5714 21.163 61.4888 21.5705C60.7993 21.83 60.1808 22.2366 59.6731 22.7564C59.1907 23.2502 59.4046 24.0299 60.0024 24.375L60.6366 24.7411C61.6009 25.298 61.4108 26.7429 60.3351 27.0311L59.6278 27.2206Z" fill="#0D0140"/>
<path d="M44.3723 27.2206C45.0392 27.3992 45.4476 28.0969 45.1094 28.6987C44.7536 29.3322 44.2613 29.8851 43.6626 30.3142C42.7223 30.988 41.5774 31.315 40.4232 31.2392C39.2688 31.1636 38.1765 30.6901 37.3322 29.8994C36.4879 29.1086 35.9439 28.0495 35.7929 26.9026C35.6419 25.7557 35.8933 24.592 36.5041 23.6096C37.115 22.6274 38.0476 21.8872 39.143 21.5154C40.2383 21.1435 41.4288 21.163 42.5114 21.5705C43.2008 21.83 43.8194 22.2366 44.3272 22.7564C44.8096 23.2502 44.5956 24.0299 43.9977 24.375L43.3636 24.7411C42.3992 25.298 42.5894 26.7429 43.6651 27.0311L44.3723 27.2206Z" fill="#0D0140"/>
</svg>
